Coordinates
version=1
nRows=14
nColumns=24
inDegrees=yes

Units are S.I. units (second, meters, Newtons, ...)
Angles are in degrees.

endheader
time	pelvis_tilt	pelvis_list	pelvis_rotation	pelvis_tx	pelvis_ty	pelvis_tz	hip_flexion_r	hip_adduction_r	hip_rotation_r	knee_angle_r	ankle_angle_r	subtalar_angle_r	mtp_angle_r	hip_flexion_l	hip_adduction_l	hip_rotation_l	knee_angle_l	ankle_angle_l	subtalar_angle_l	mtp_angle_l	lumbar_extension	lumbar_bending	lumbar_rotation
      3.44500000	     -6.92673491	     -2.17390759	     -4.00518029	     -0.95802971	     -0.04151321	     -0.18495873	     -5.93029803	      7.57902156	      5.01202628	    -26.82944249	      5.72335773	     13.95704511	     20.16853246	     39.08405237	     -1.09664469	    -15.39629158	    -18.47561676	      8.83131233	     15.35900253	    -16.14116296	      5.96117449	      1.99449127	      6.53478654
      3.45000000	     -7.07419510	     -1.91140046	     -4.19202119	     -0.95011553	     -0.04229990	     -0.18508700	     -5.73159286	      7.11206253	      4.81456573	    -27.83593963	      4.95926637	     14.84448261	     20.34532059	     39.19384667	     -0.93307657	    -15.58733014	    -19.27458818	      8.31293333	     14.65986287	    -16.23338418	      6.36679052	      1.69975714	      6.69306302
      3.45500000	     -7.13518490	     -1.62737152	     -4.20032866	     -0.94215143	     -0.04294403	     -0.18564603	     -5.63561519	      6.55185711	      4.35542007	    -28.73973658	      4.06633941	     15.99661728	     21.12851592	     39.20111401	     -0.54602750	    -15.33301168	    -19.97765564	      7.46671981	     13.43118530	    -16.24713822	      6.68386964	      1.37216497	      6.61123177
      3.46000000	     -7.21511065	     -1.24141742	     -4.25323531	     -0.93405159	     -0.04340340	     -0.18608137	     -5.49339849	      5.87332866	      3.95562139	    -29.62951024	      2.94275165	     17.06592874	     22.10561806	     39.17976645	     -0.09870159	    -15.15045495	    -20.60769570	      6.50080169	     12.23771766	    -16.24287773	      7.05478554	      0.94209117	      6.66595405
      3.46500000	     -7.16237720	     -0.90097588	     -4.16878122	     -0.92601328	     -0.04367200	     -0.18666254	     -5.50845212	      5.22282306	      3.38476911	    -30.30394808	      1.16268343	     17.64921867	     24.57009255	     39.03799886	      0.42121005	    -14.71869973	    -21.21054884	      5.31490125	     10.89843697	    -15.51705356	      7.25030720	      0.51309112	      6.46378311
      3.47000000	     -7.24436328	     -0.51099866	     -4.13915401	     -0.91794398	     -0.04400391	     -0.18722169	     -5.28280097	      4.49278031	      2.81945259	    -31.20898631	     -0.34241241	     18.76022780	     25.95606546	     39.05158125	      0.95522147	    -14.26895952	    -21.87088527	      4.28615300	      9.59972229	    -15.35079767	      7.61316754	      0.06988523	      6.42644967
      3.47500000	     -7.32059263	     -0.11899423	     -4.10494981	     -0.91001952	     -0.04427091	     -0.18781365	     -5.00531953	      3.75105284	      2.33451645	    -32.16078724	     -1.94452998	     19.96251280	     27.38109592	     39.10460671	      1.50086347	    -13.79533133	    -22.61316559	      3.31136815	      8.28549001	    -15.49256010	      7.93134277	     -0.37787294	      6.32569983
      3.48000000	     -7.37623125	      0.33053057	     -4.01496994	     -0.90181437	     -0.04439669	     -0.18837742	     -4.77686620	      2.93952256	      1.76558334	    -32.96069265	     -4.04562527	     20.77472817	     29.51385657	     39.08647078	      2.14577189	    -13.25147086	    -23.32263204	      2.49487362	      7.07009116	    -15.77772069	      8.28685534	     -0.91252156	      6.19077444
      3.48500000	     -7.46383123	      0.76308277	     -3.95669151	     -0.89378014	     -0.04453581	     -0.18896421	     -4.42775519	      2.13757504	      1.28637753	    -33.87579071	     -6.16796220	     21.70440967	     31.34327633	     39.13240263	      2.76182574	    -12.70804198	    -24.09744198	      1.81194725	      5.89088442	    -16.35387967	      8.64014834	     -1.40548510	      6.08762823
      3.49000000	     -7.56471914	      1.14790841	     -3.86869922	     -0.88588151	     -0.04471668	     -0.18963913	     -3.99858384	      1.37999636	      0.84185237	    -34.90251442	     -8.27162404	     22.83943105	     32.63926066	     39.20970657	      3.36796467	    -12.07475645	    -24.90704747	      1.23900521	      4.73542562	    -16.97644103	      8.97199984	     -1.84199856	      5.96196255
      3.49500000	     -7.66447165	      1.57383384	     -3.77245035	     -0.87793452	     -0.04486113	     -0.19031240	     -3.53104131	      0.57929367	      0.41380696	    -35.93973771	    -10.60603918	     23.74862244	     33.99722402	     39.24509730	      4.02095870	    -11.48908762	    -25.66783685	      0.81199132	      3.67871928	    -17.67771480	      9.31072407	     -2.32104232	      5.85418325
      3.50000000	     -7.73389331	      2.03096927	     -3.64898360	     -0.86988578	     -0.04493589	     -0.19093355	     -3.09176211	     -0.23727882	      0.01600012	    -36.91587955	    -13.23719216	     24.31782263	     35.60902702	     39.19773296	      4.69972174	    -11.01562816	    -26.38882199	      0.65243442	      2.89852068	    -18.55957004	      9.64062037	     -2.86028047	      5.67922981
      3.50500000	     -7.83838525	      2.43495859	     -3.53741241	     -0.86209978	     -0.04509051	     -0.19163948	     -2.50402721	     -0.98123204	     -0.25799243	    -38.13300855	    -15.62553523	     25.10875317	     35.92862606	     39.17625991	      5.33950490	    -10.50059163	    -27.04838044	      0.39592349	      2.00029516	    -18.96808106	      9.95325660	     -3.31068783	      5.54954054
      3.51000000	     -7.90956960	      2.84897535	     -3.37218841	     -0.85439104	     -0.04522149	     -0.19239421	     -1.91202366	     -1.72821083	     -0.56810266	    -39.37542561	    -18.15949118	     25.64983175	     36.23553899	     39.07465233	      6.01162282	    -10.06247544	    -27.62882692	      0.24861541	      1.23496519	    -19.27149608	     10.20523763	     -3.78791604	      5.38043332
